<svg width="21" height="20" viewBox="0 0 21 20" fill="none" xmlns="http://www.w3.org/2000/svg">
  <path d="M17.9184 10.4449C17.9996 10.2323 18.0208 9.99821 17.9794 9.77243C17.938 9.54664 17.8359 9.33926 17.6859 9.17653L13.3999 4.52176C13.3011 4.41062 13.1829 4.32197 13.0521 4.26098C12.9214 4.19999 12.7808 4.16789 12.6385 4.16655C12.4963 4.16521 12.3552 4.19465 12.2235 4.25316C12.0918 4.31167 11.9722 4.39808 11.8716 4.50734C11.771 4.6166 11.6914 4.74653 11.6375 4.88954C11.5836 5.03256 11.5565 5.18579 11.5578 5.34031C11.559 5.49482 11.5886 5.64752 11.6447 5.78949C11.7009 5.93147 11.7825 6.05988 11.8848 6.16722L14.3429 8.83673H4.0715C3.78732 8.83673 3.51478 8.95933 3.31383 9.17757C3.11289 9.3958 3 9.69179 3 10.0004C3 10.309 3.11289 10.605 3.31383 10.8233C3.51478 11.0415 3.78732 11.1641 4.0715 11.1641H14.3429L11.8859 13.8325C11.7836 13.9398 11.702 14.0682 11.6458 14.2102C11.5896 14.3522 11.5601 14.5049 11.5588 14.6594C11.5576 14.8139 11.5847 14.9671 11.6386 15.1101C11.6925 15.2531 11.772 15.3831 11.8726 15.4923C11.9732 15.6016 12.0929 15.688 12.2246 15.7465C12.3562 15.805 12.4973 15.8345 12.6396 15.8331C12.7819 15.8318 12.9225 15.7997 13.0532 15.7387C13.1839 15.6777 13.3022 15.5891 13.401 15.4779L17.687 10.8231C17.7863 10.7148 17.8649 10.5863 17.9184 10.4449V10.4449Z" fill="currentColor" />
</svg>