<svg width="564" height="700" viewBox="0 0 564 700" fill="none" xmlns="http://www.w3.org/2000/svg">
<path d="M-248.609 612.072C-238.195 604.995 -208.613 602.537 -198.626 578.104C-188.638 553.672 -214.409 519.112 -200.667 494.796C-186.925 470.48 -147.425 484.978 -132.665 461.387C-117.905 437.796 -149.67 401.524 -129.819 381.56C-109.969 361.595 -58.4215 384.676 -37.3835 365.557C-16.3455 346.439 -43.5967 313.383 -28.8368 289.792C-14.0769 266.201 17.5164 275.066 33.4641 252.321C49.4117 229.577 28.8798 201.307 47.7119 180.618C66.5441 159.928 107.741 175.634 123.859 153.011C139.976 130.387 108.788 94.5261 125.075 72.0232C141.362 49.5203 183.883 66.1699 202.036 44.9967C220.19 23.8234 210.092 -14.0656 212.212 -29.6083" stroke="url(#paint0_linear_79_4771)" stroke-width="2" stroke-linecap="round"/>
<path d="M73.9165 841.841C84.3296 834.764 113.912 832.305 123.899 807.873C133.887 783.44 108.116 748.88 121.858 724.564C135.6 700.248 175.1 714.746 189.86 691.155C204.62 667.564 172.855 631.293 192.706 611.328C212.556 591.364 264.103 614.444 285.141 595.326C306.179 576.208 278.928 543.151 293.688 519.561C308.448 495.97 340.041 504.835 355.989 482.09C371.937 459.345 351.405 431.076 370.237 410.386C389.069 389.696 430.266 405.403 446.384 382.779C462.501 360.155 431.313 324.295 447.6 301.792C463.887 279.289 506.408 295.938 524.561 274.765C542.715 253.592 532.617 215.703 534.737 200.16" stroke="url(#paint1_linear_79_4771)" stroke-width="2" stroke-linecap="round"/>
<path d="M55.9984 829.076C66.4115 821.999 95.9935 819.541 105.981 795.108C115.969 770.675 90.1983 736.116 103.94 711.8C117.682 687.484 157.182 701.981 171.942 678.391C186.702 654.8 154.937 618.528 174.788 598.564C194.638 578.599 246.185 601.68 267.223 582.561C288.261 563.443 261.01 530.387 275.77 506.796C290.53 483.205 322.123 492.07 338.071 469.325C354.019 446.581 333.487 418.311 352.319 397.621C371.151 376.932 412.348 392.638 428.465 370.015C444.583 347.391 413.395 311.53 429.682 289.027C445.969 266.524 488.49 283.174 506.643 262.001C524.797 240.827 514.699 202.938 516.819 187.396" stroke="url(#paint2_linear_79_4771)" stroke-width="2" stroke-linecap="round"/>
<path d="M38.0803 816.311C48.4934 809.234 78.0754 806.775 88.0633 782.343C98.0511 757.91 72.2802 723.351 86.022 699.035C99.7639 674.718 139.264 689.216 154.024 665.625C168.784 642.035 137.019 605.763 156.87 585.799C176.72 565.834 228.267 588.914 249.305 569.796C270.343 550.678 243.092 517.622 257.852 494.031C272.612 470.44 304.205 479.305 320.153 456.56C336.101 433.815 315.569 405.546 334.401 384.856C353.233 364.167 394.43 379.873 410.547 357.249C426.665 334.626 395.477 298.765 411.764 276.262C428.051 253.759 470.572 270.409 488.725 249.235C506.879 228.062 496.781 190.173 498.901 174.63" stroke="url(#paint3_linear_79_4771)" stroke-width="2" stroke-linecap="round"/>
<path d="M20.1623 803.546C30.5754 796.469 60.1574 794.011 70.1452 769.578C80.1331 745.146 54.3621 710.586 68.104 686.27C81.8458 661.954 121.346 676.452 136.106 652.861C150.866 629.27 119.101 592.998 138.952 573.034C158.802 553.069 210.349 576.15 231.387 557.032C252.425 537.913 225.174 504.857 239.934 481.266C254.694 457.675 286.287 466.54 302.235 443.795C318.182 421.051 297.651 392.781 316.483 372.092C335.315 351.402 376.512 367.109 392.629 344.485C408.747 321.861 377.559 286 393.846 263.497C410.133 240.994 452.654 257.644 470.807 236.471C488.96 215.298 478.863 177.408 480.983 161.866" stroke="url(#paint4_linear_79_4771)" stroke-width="2" stroke-linecap="round"/>
<path d="M2.24423 790.781C12.6573 783.704 42.2393 781.246 52.2272 756.813C62.215 732.381 36.4441 697.821 50.1859 673.505C63.9278 649.189 103.428 663.687 118.188 640.096C132.948 616.505 101.183 580.233 121.033 560.269C140.884 540.304 192.431 563.385 213.469 544.266C234.507 525.148 207.256 492.092 222.016 468.501C236.776 444.91 268.369 453.775 284.317 431.03C300.264 408.286 279.732 380.016 298.565 359.326C317.397 338.637 358.594 354.343 374.711 331.72C390.829 309.096 359.641 273.235 375.928 250.732C392.215 228.229 434.735 244.879 452.889 223.706C471.042 202.532 460.945 164.643 463.065 149.101" stroke="url(#paint5_linear_79_4771)" stroke-width="2" stroke-linecap="round"/>
<path d="M-15.6738 778.016C-5.2607 770.939 24.3213 768.481 34.3091 744.048C44.297 719.615 18.5261 685.056 32.2679 660.74C46.0097 636.424 85.51 650.921 100.27 627.331C115.03 603.74 83.2652 567.468 103.115 547.504C122.966 527.539 174.513 550.62 195.551 531.501C216.589 512.383 189.338 479.327 204.098 455.736C218.858 432.145 250.451 441.01 266.399 418.265C282.346 395.521 261.814 367.251 280.647 346.561C299.479 325.872 340.676 341.578 356.793 318.955C372.911 296.331 341.723 260.47 358.01 237.967C374.297 215.464 416.817 232.114 434.971 210.941C453.124 189.767 443.027 151.878 445.147 136.336" stroke="url(#paint6_linear_79_4771)" stroke-width="2" stroke-linecap="round"/>
<path d="M-33.5919 765.251C-23.1788 758.175 6.40322 755.716 16.3911 731.283C26.3789 706.851 0.607996 672.291 14.3498 647.975C28.0917 623.659 67.592 638.157 82.3519 614.566C97.1118 590.975 65.3471 554.703 85.1974 534.739C105.048 514.775 156.595 537.855 177.633 518.737C198.671 499.618 171.42 466.562 186.18 442.971C200.94 419.38 232.533 428.245 248.481 405.501C264.428 382.756 243.896 354.486 262.729 333.797C281.561 313.107 322.758 328.814 338.875 306.19C354.993 283.566 323.805 247.705 340.092 225.202C356.379 202.699 398.899 219.349 417.053 198.176C435.206 177.003 425.109 139.114 427.228 123.571" stroke="url(#paint7_linear_79_4771)" stroke-width="2" stroke-linecap="round"/>
<path d="M-51.5099 752.486C-41.0968 745.409 -11.5148 742.951 -1.52698 718.518C8.46088 694.086 -17.3101 659.526 -3.56823 635.21C10.1736 610.894 49.6739 625.392 64.4338 601.801C79.1937 578.21 47.4291 541.938 67.2793 521.974C87.1296 502.009 138.677 525.09 159.715 505.971C180.753 486.853 153.502 453.797 168.262 430.206C183.022 406.615 214.615 415.48 230.563 392.735C246.51 369.991 225.978 341.721 244.811 321.032C263.643 300.342 304.84 316.049 320.957 293.425C337.074 270.801 305.887 234.94 322.174 212.437C338.461 189.934 380.981 206.584 399.135 185.411C417.288 164.237 407.191 126.348 409.31 110.806" stroke="url(#paint8_linear_79_4771)" stroke-width="2" stroke-linecap="round"/>
<path d="M-69.428 739.721C-59.0149 732.645 -29.4329 730.186 -19.445 705.754C-9.45717 681.321 -35.2281 646.761 -21.4863 622.445C-7.74444 598.129 31.7559 612.627 46.5158 589.036C61.2757 565.445 29.511 529.174 49.3613 509.209C69.2115 489.245 120.759 512.325 141.797 493.207C162.835 474.089 135.584 441.032 150.344 417.441C165.104 393.851 196.697 402.715 212.645 379.971C228.592 357.226 208.06 328.957 226.892 308.267C245.725 287.577 286.922 303.284 303.039 280.66C319.156 258.036 287.969 222.176 304.256 199.673C320.543 177.17 363.063 193.819 381.217 172.646C399.37 151.473 389.272 113.584 391.392 98.0411" stroke="url(#paint9_linear_79_4771)" stroke-width="2" stroke-linecap="round"/>
<path d="M-87.346 726.956C-76.9329 719.88 -47.3509 717.421 -37.3631 692.988C-27.3752 668.556 -53.1462 633.996 -39.4043 609.68C-25.6625 585.364 13.8378 599.862 28.5977 576.271C43.3576 552.68 11.593 516.408 31.4432 496.444C51.2935 476.48 102.841 499.56 123.879 480.442C144.917 461.323 117.666 428.267 132.426 404.676C147.186 381.085 178.779 389.95 194.727 367.206C210.674 344.461 190.142 316.192 208.974 295.502C227.807 274.812 269.004 290.519 285.121 267.895C301.238 245.271 270.051 209.41 286.338 186.907C302.625 164.405 345.145 181.054 363.299 159.881C381.452 138.708 371.354 100.819 373.474 85.2759" stroke="url(#paint10_linear_79_4771)" stroke-width="2" stroke-linecap="round"/>
<path d="M-105.264 714.192C-94.851 707.115 -65.269 704.656 -55.2811 680.224C-45.2933 655.791 -71.0642 621.232 -57.3224 596.915C-43.5805 572.599 -4.08023 587.097 10.6797 563.506C25.4396 539.916 -6.32509 503.644 13.5252 483.679C33.3754 463.715 84.9229 486.795 105.961 467.677C126.999 448.559 99.7477 415.502 114.508 391.912C129.268 368.321 160.861 377.186 176.808 354.441C192.756 331.696 172.224 303.427 191.056 282.737C209.889 262.047 251.086 277.754 267.203 255.13C283.32 232.506 252.133 196.646 268.42 174.143C284.707 151.64 327.227 168.29 345.381 147.116C363.534 125.943 353.436 88.054 355.556 72.5113" stroke="url(#paint11_linear_79_4771)" stroke-width="2" stroke-linecap="round"/>
<path d="M-123.182 701.426C-112.769 694.35 -83.187 691.891 -73.1992 667.459C-63.2113 643.026 -88.9823 608.466 -75.2404 584.15C-61.4986 559.834 -21.9983 574.332 -7.23837 550.741C7.52153 527.15 -24.2431 490.879 -4.39289 470.914C15.4574 450.95 67.0049 474.03 88.0429 454.912C109.081 435.794 81.8297 402.737 96.5896 379.146C111.349 355.556 142.943 364.421 158.89 341.676C174.838 318.931 154.306 290.662 173.138 269.972C191.971 249.282 233.168 264.989 249.285 242.365C265.402 219.741 234.215 183.881 250.502 161.378C266.789 138.875 309.309 155.524 327.463 134.351C345.616 113.178 335.518 75.2889 337.638 59.7462" stroke="url(#paint12_linear_79_4771)" stroke-width="2" stroke-linecap="round"/>
<path d="M-141.1 688.661C-130.687 681.585 -101.105 679.126 -91.1172 654.693C-81.1294 630.261 -106.9 595.701 -93.1585 571.385C-79.4166 547.069 -39.9163 561.567 -25.1564 537.976C-10.3965 514.385 -42.1612 478.114 -22.3109 458.149C-2.46068 438.185 49.0868 461.265 70.1248 442.147C91.1628 423.028 63.9116 389.972 78.6715 366.381C93.4314 342.79 125.025 351.655 140.972 328.911C156.92 306.166 136.388 277.897 155.22 257.207C174.052 236.517 215.25 252.224 231.367 229.6C247.484 206.976 216.296 171.116 232.583 148.613C248.871 126.11 291.391 142.759 309.545 121.586C327.698 100.413 317.6 62.5237 319.72 46.981" stroke="url(#paint13_linear_79_4771)" stroke-width="2" stroke-linecap="round"/>
<path d="M-159.018 675.897C-148.605 668.82 -119.023 666.361 -109.035 641.929C-99.0474 617.496 -124.818 582.937 -111.077 558.621C-97.3347 534.304 -57.8344 548.802 -43.0745 525.211C-28.3146 501.621 -60.0793 465.349 -40.229 445.384C-20.3787 425.42 31.1688 448.5 52.2068 429.382C73.2448 410.264 45.9936 377.208 60.7535 353.617C75.5134 330.026 107.107 338.891 123.054 316.146C139.002 293.401 118.47 265.132 137.302 244.442C156.134 223.752 197.332 239.459 213.449 216.835C229.566 194.212 198.378 158.351 214.665 135.848C230.952 113.345 273.473 129.995 291.626 108.821C309.78 87.6481 299.682 49.7591 301.802 34.2164" stroke="url(#paint14_linear_79_4771)" stroke-width="2" stroke-linecap="round"/>
<path d="M-176.936 663.132C-166.523 656.055 -136.941 653.596 -126.953 629.164C-116.965 604.731 -142.736 570.171 -128.995 545.855C-115.253 521.539 -75.7524 536.037 -60.9925 512.446C-46.2326 488.855 -77.9973 452.584 -58.147 432.619C-38.2968 412.655 13.2507 435.735 34.2887 416.617C55.3267 397.499 28.0755 364.442 42.8354 340.852C57.5953 317.261 89.1886 326.126 105.136 303.381C121.084 280.636 100.552 252.367 119.384 231.677C138.216 210.987 179.413 226.694 195.531 204.07C211.648 181.446 180.46 145.586 196.747 123.083C213.034 100.58 255.555 117.229 273.708 96.0562C291.862 74.883 281.764 36.9939 283.884 21.4512" stroke="url(#paint15_linear_79_4771)" stroke-width="2" stroke-linecap="round"/>
<path d="M-194.854 650.367C-184.441 643.29 -154.859 640.832 -144.871 616.399C-134.884 591.967 -160.654 557.407 -146.913 533.091C-133.171 508.775 -93.6705 523.272 -78.9106 499.682C-64.1507 476.091 -95.9154 439.819 -76.0651 419.855C-56.2148 399.89 -4.66734 422.971 16.3707 403.852C37.4087 384.734 10.1575 351.678 24.9174 328.087C39.6773 304.496 71.2706 313.361 87.2182 290.616C103.166 267.872 82.6339 239.602 101.466 218.912C120.298 198.223 161.495 213.929 177.613 191.306C193.73 168.682 162.542 132.821 178.829 110.318C195.116 87.8152 237.637 104.465 255.79 83.2916C273.944 62.1183 263.846 24.2293 265.966 8.68659" stroke="url(#paint16_linear_79_4771)" stroke-width="2" stroke-linecap="round"/>
<path d="M-212.772 637.602C-202.359 630.525 -172.777 628.066 -162.789 603.634C-152.802 579.201 -178.573 544.642 -164.831 520.326C-151.089 496.009 -111.589 510.507 -96.8286 486.917C-82.0687 463.326 -113.833 427.054 -93.9831 407.09C-74.1329 387.125 -22.5854 410.205 -1.54738 391.087C19.4906 371.969 -7.76059 338.913 6.99931 315.322C21.7592 291.731 53.3525 300.596 69.3002 277.851C85.2478 255.106 64.7159 226.837 83.548 206.147C102.38 185.458 143.577 201.164 159.695 178.54C175.812 155.917 144.624 120.056 160.911 97.553C177.198 75.0501 219.719 91.6997 237.872 70.5264C256.026 49.3532 245.928 11.4642 248.048 -4.07855" stroke="url(#paint17_linear_79_4771)" stroke-width="2" stroke-linecap="round"/>
<path d="M-230.69 624.837C-220.277 617.76 -190.695 615.302 -180.708 590.869C-170.72 566.437 -196.491 531.877 -182.749 507.561C-169.007 483.245 -129.507 497.743 -114.747 474.152C-99.9868 450.561 -131.751 414.289 -111.901 394.325C-92.0509 374.36 -40.5034 397.441 -19.4654 378.323C1.57258 359.204 -25.6786 326.148 -10.9187 302.557C3.84117 278.966 35.4345 287.831 51.3821 265.086C67.3298 242.342 46.7978 214.072 65.63 193.383C84.4622 172.693 125.659 188.4 141.777 165.776C157.894 143.152 126.706 107.291 142.993 84.7884C159.28 62.2854 201.801 78.935 219.954 57.7618C238.108 36.5885 228.01 -1.30049 230.13 -16.8432" stroke="url(#paint18_linear_79_4771)" stroke-width="2" stroke-linecap="round"/>
<defs>
<linearGradient id="paint0_linear_79_4771" x1="-32457.6" y1="-22288" x2="-28079.1" y2="-28434" gradientUnits="userSpaceOnUse">
<stop stop-color="#FEBE58"/>
<stop offset="1" stop-color="#DE2BAE"/>
</linearGradient>
<linearGradient id="paint1_linear_79_4771" x1="-32135.1" y1="-22058.2" x2="-27756.6" y2="-28204.2" gradientUnits="userSpaceOnUse">
<stop stop-color="#FEBE58"/>
<stop offset="1" stop-color="#DE2BAE"/>
</linearGradient>
<linearGradient id="paint2_linear_79_4771" x1="-32153" y1="-22071" x2="-27774.5" y2="-28217" gradientUnits="userSpaceOnUse">
<stop stop-color="#FEBE58"/>
<stop offset="1" stop-color="#DE2BAE"/>
</linearGradient>
<linearGradient id="paint3_linear_79_4771" x1="-32170.9" y1="-22083.8" x2="-27792.4" y2="-28229.8" gradientUnits="userSpaceOnUse">
<stop stop-color="#FEBE58"/>
<stop offset="1" stop-color="#DE2BAE"/>
</linearGradient>
<linearGradient id="paint4_linear_79_4771" x1="-32188.8" y1="-22096.5" x2="-27810.4" y2="-28242.5" gradientUnits="userSpaceOnUse">
<stop stop-color="#FEBE58"/>
<stop offset="1" stop-color="#DE2BAE"/>
</linearGradient>
<linearGradient id="paint5_linear_79_4771" x1="-32206.7" y1="-22109.3" x2="-27828.3" y2="-28255.3" gradientUnits="userSpaceOnUse">
<stop stop-color="#FEBE58"/>
<stop offset="1" stop-color="#DE2BAE"/>
</linearGradient>
<linearGradient id="paint6_linear_79_4771" x1="-32224.7" y1="-22122" x2="-27846.2" y2="-28268.1" gradientUnits="userSpaceOnUse">
<stop stop-color="#FEBE58"/>
<stop offset="1" stop-color="#DE2BAE"/>
</linearGradient>
<linearGradient id="paint7_linear_79_4771" x1="-32242.6" y1="-22134.8" x2="-27864.1" y2="-28280.8" gradientUnits="userSpaceOnUse">
<stop stop-color="#FEBE58"/>
<stop offset="1" stop-color="#DE2BAE"/>
</linearGradient>
<linearGradient id="paint8_linear_79_4771" x1="-32260.5" y1="-22147.6" x2="-27882" y2="-28293.6" gradientUnits="userSpaceOnUse">
<stop stop-color="#FEBE58"/>
<stop offset="1" stop-color="#DE2BAE"/>
</linearGradient>
<linearGradient id="paint9_linear_79_4771" x1="-32278.4" y1="-22160.3" x2="-27900" y2="-28306.4" gradientUnits="userSpaceOnUse">
<stop stop-color="#FEBE58"/>
<stop offset="1" stop-color="#DE2BAE"/>
</linearGradient>
<linearGradient id="paint10_linear_79_4771" x1="-32296.3" y1="-22173.1" x2="-27917.9" y2="-28319.1" gradientUnits="userSpaceOnUse">
<stop stop-color="#FEBE58"/>
<stop offset="1" stop-color="#DE2BAE"/>
</linearGradient>
<linearGradient id="paint11_linear_79_4771" x1="-32314.3" y1="-22185.9" x2="-27935.8" y2="-28331.9" gradientUnits="userSpaceOnUse">
<stop stop-color="#FEBE58"/>
<stop offset="1" stop-color="#DE2BAE"/>
</linearGradient>
<linearGradient id="paint12_linear_79_4771" x1="-32332.2" y1="-22198.6" x2="-27953.7" y2="-28344.7" gradientUnits="userSpaceOnUse">
<stop stop-color="#FEBE58"/>
<stop offset="1" stop-color="#DE2BAE"/>
</linearGradient>
<linearGradient id="paint13_linear_79_4771" x1="-32350.1" y1="-22211.4" x2="-27971.6" y2="-28357.4" gradientUnits="userSpaceOnUse">
<stop stop-color="#FEBE58"/>
<stop offset="1" stop-color="#DE2BAE"/>
</linearGradient>
<linearGradient id="paint14_linear_79_4771" x1="-32368" y1="-22224.2" x2="-27989.5" y2="-28370.2" gradientUnits="userSpaceOnUse">
<stop stop-color="#FEBE58"/>
<stop offset="1" stop-color="#DE2BAE"/>
</linearGradient>
<linearGradient id="paint15_linear_79_4771" x1="-32385.9" y1="-22236.9" x2="-28007.5" y2="-28383" gradientUnits="userSpaceOnUse">
<stop stop-color="#FEBE58"/>
<stop offset="1" stop-color="#DE2BAE"/>
</linearGradient>
<linearGradient id="paint16_linear_79_4771" x1="-32403.8" y1="-22249.7" x2="-28025.4" y2="-28395.7" gradientUnits="userSpaceOnUse">
<stop stop-color="#FEBE58"/>
<stop offset="1" stop-color="#DE2BAE"/>
</linearGradient>
<linearGradient id="paint17_linear_79_4771" x1="-32421.8" y1="-22262.5" x2="-28043.3" y2="-28408.5" gradientUnits="userSpaceOnUse">
<stop stop-color="#FEBE58"/>
<stop offset="1" stop-color="#DE2BAE"/>
</linearGradient>
<linearGradient id="paint18_linear_79_4771" x1="-32439.7" y1="-22275.2" x2="-28061.2" y2="-28421.3" gradientUnits="userSpaceOnUse">
<stop stop-color="#FEBE58"/>
<stop offset="1" stop-color="#DE2BAE"/>
</linearGradient>
</defs>
</svg>
