<svg width="762" height="337" viewBox="0 0 762 337" fill="none" xmlns="http://www.w3.org/2000/svg">
<path d="M263.722 180.07C346.308 180.07 413.257 113.121 413.257 30.5352C413.257 -52.0508 346.308 -119 263.722 -119C181.136 -119 114.187 -52.0508 114.187 30.5352C114.187 113.121 181.136 180.07 263.722 180.07Z" fill="#7353BA"/>
<path d="M3.45825 283.555C19.1753 283.555 31.9165 270.814 31.9165 255.097C31.9165 239.38 19.1753 226.639 3.45825 226.639C-12.2588 226.639 -25 239.38 -25 255.097C-25 270.814 -12.2588 283.555 3.45825 283.555Z" fill="#7353BA"/>
<path d="M682.317 336.849C726.325 336.849 762 301.174 762 257.166C762 213.158 726.325 177.483 682.317 177.483C638.309 177.483 602.634 213.158 602.634 257.166C602.634 301.174 638.309 336.849 682.317 336.849Z" fill="#7353BA"/>
</svg>
