<svg width="825" height="468" viewBox="0 0 825 468" fill="none" xmlns="http://www.w3.org/2000/svg">
<path d="M1 432.447C42.2869 434.322 114.43 448.738 199.177 441.447C283.924 434.155 320.865 392.238 407.785 397.447C494.705 402.655 529.473 465.405 616.392 466.447C703.312 467.488 781.54 415.78 825 402.447" stroke="url(#paint0_linear_79_4622)" stroke-width="2" stroke-linecap="round"/>
<path d="M1 410.447C42.2869 412.322 114.43 426.738 199.177 419.447C283.924 412.155 320.865 370.238 407.785 375.447C494.705 380.655 529.473 443.405 616.392 444.447C703.312 445.488 781.54 393.78 825 380.447" stroke="url(#paint1_linear_79_4622)" stroke-width="2" stroke-linecap="round"/>
<path d="M1 388.447C42.2869 390.322 114.43 404.738 199.177 397.447C283.924 390.155 320.865 348.238 407.785 353.447C494.705 358.655 529.473 421.405 616.392 422.447C703.312 423.488 781.54 371.78 825 358.447" stroke="url(#paint2_linear_79_4622)" stroke-width="2" stroke-linecap="round"/>
<path d="M1 366.447C42.2869 368.322 114.43 382.738 199.177 375.447C283.924 368.155 320.865 326.238 407.785 331.447C494.705 336.655 529.473 399.405 616.392 400.447C703.312 401.488 781.54 349.78 825 336.447" stroke="url(#paint3_linear_79_4622)" stroke-width="2" stroke-linecap="round"/>
<path d="M1 344.447C42.2869 346.322 114.43 360.738 199.177 353.447C283.924 346.155 320.865 304.238 407.785 309.447C494.705 314.655 529.473 377.405 616.392 378.447C703.312 379.488 781.54 327.78 825 314.447" stroke="url(#paint4_linear_79_4622)" stroke-width="2" stroke-linecap="round"/>
<path d="M1 322.447C42.2869 324.322 114.43 338.738 199.177 331.447C283.924 324.155 320.865 282.238 407.785 287.447C494.705 292.655 529.473 355.405 616.392 356.447C703.312 357.488 781.54 305.78 825 292.447" stroke="url(#paint5_linear_79_4622)" stroke-width="2" stroke-linecap="round"/>
<path d="M1 300.447C42.2869 302.322 114.43 316.738 199.177 309.447C283.924 302.155 320.865 260.238 407.785 265.447C494.705 270.655 529.473 333.405 616.392 334.447C703.312 335.488 781.54 283.78 825 270.447" stroke="url(#paint6_linear_79_4622)" stroke-width="2" stroke-linecap="round"/>
<path d="M1 278.447C42.2869 280.322 114.43 294.738 199.177 287.447C283.924 280.155 320.865 238.238 407.785 243.447C494.705 248.655 529.473 311.405 616.392 312.447C703.312 313.488 781.54 261.78 825 248.447" stroke="url(#paint7_linear_79_4622)" stroke-width="2" stroke-linecap="round"/>
<path d="M1 256.447C42.2869 258.322 114.43 272.738 199.177 265.447C283.924 258.155 320.865 216.238 407.785 221.447C494.705 226.655 529.473 289.405 616.392 290.447C703.312 291.488 781.54 239.78 825 226.447" stroke="url(#paint8_linear_79_4622)" stroke-width="2" stroke-linecap="round"/>
<path d="M1 234.447C42.2869 236.322 114.43 250.738 199.177 243.447C283.924 236.155 320.865 194.238 407.785 199.447C494.705 204.655 529.473 267.405 616.392 268.447C703.312 269.488 781.54 217.78 825 204.447" stroke="url(#paint9_linear_79_4622)" stroke-width="2" stroke-linecap="round"/>
<path d="M1 212.447C42.2869 214.322 114.43 228.738 199.177 221.447C283.924 214.155 320.865 172.238 407.785 177.447C494.705 182.655 529.473 245.405 616.392 246.447C703.312 247.488 781.54 195.78 825 182.447" stroke="url(#paint10_linear_79_4622)" stroke-width="2" stroke-linecap="round"/>
<path d="M1 190.447C42.2869 192.322 114.43 206.738 199.177 199.447C283.924 192.155 320.865 150.238 407.785 155.447C494.705 160.655 529.473 223.405 616.392 224.447C703.312 225.488 781.54 173.78 825 160.447" stroke="url(#paint11_linear_79_4622)" stroke-width="2" stroke-linecap="round"/>
<path d="M1 168.447C42.2869 170.322 114.43 184.738 199.177 177.447C283.924 170.155 320.865 128.238 407.785 133.447C494.705 138.655 529.473 201.405 616.392 202.447C703.312 203.488 781.54 151.78 825 138.447" stroke="url(#paint12_linear_79_4622)" stroke-width="2" stroke-linecap="round"/>
<path d="M1 146.447C42.2869 148.322 114.43 162.738 199.177 155.447C283.924 148.155 320.865 106.238 407.785 111.447C494.705 116.655 529.473 179.405 616.392 180.447C703.312 181.488 781.54 129.78 825 116.447" stroke="url(#paint13_linear_79_4622)" stroke-width="2" stroke-linecap="round"/>
<path d="M1 124.447C42.2869 126.322 114.43 140.738 199.177 133.447C283.924 126.155 320.865 84.2383 407.785 89.4466C494.705 94.655 529.473 157.405 616.392 158.447C703.312 159.488 781.54 107.78 825 94.4466" stroke="url(#paint14_linear_79_4622)" stroke-width="2" stroke-linecap="round"/>
<path d="M1 102.447C42.2869 104.322 114.43 118.738 199.177 111.447C283.924 104.155 320.865 62.2383 407.785 67.4466C494.705 72.655 529.473 135.405 616.392 136.447C703.312 137.488 781.54 85.78 825 72.4466" stroke="url(#paint15_linear_79_4622)" stroke-width="2" stroke-linecap="round"/>
<path d="M1 80.4466C42.2869 82.3216 114.43 96.7383 199.177 89.4466C283.924 82.155 320.865 40.2383 407.785 45.4466C494.705 50.655 529.473 113.405 616.392 114.447C703.312 115.488 781.54 63.78 825 50.4466" stroke="url(#paint16_linear_79_4622)" stroke-width="2" stroke-linecap="round"/>
<path d="M1 58.4466C42.2869 60.3216 114.43 74.7383 199.177 67.4466C283.924 60.155 320.865 18.2383 407.785 23.4466C494.705 28.655 529.473 91.405 616.392 92.4466C703.312 93.4883 781.54 41.78 825 28.4466" stroke="url(#paint17_linear_79_4622)" stroke-width="2" stroke-linecap="round"/>
<path d="M1 36.4466C42.2869 38.3216 114.43 52.7383 199.177 45.4466C283.924 38.155 320.865 -3.76171 407.785 1.44662C494.705 6.65495 529.473 69.405 616.392 70.4466C703.312 71.4883 781.54 19.78 825 6.44662" stroke="url(#paint18_linear_79_4622)" stroke-width="2" stroke-linecap="round"/>
<defs>
<linearGradient id="paint0_linear_79_4622" x1="-35.9722" y1="-39087.6" x2="7209.19" y2="-39087.6" gradientUnits="userSpaceOnUse">
<stop stop-color="#FF5B57"/>
<stop offset="1" stop-color="#AAE4D7"/>
</linearGradient>
<linearGradient id="paint1_linear_79_4622" x1="-35.9722" y1="-39109.6" x2="7209.19" y2="-39109.6" gradientUnits="userSpaceOnUse">
<stop stop-color="#FF5B57"/>
<stop offset="1" stop-color="#AAE4D7"/>
</linearGradient>
<linearGradient id="paint2_linear_79_4622" x1="-35.9722" y1="-39131.6" x2="7209.19" y2="-39131.6" gradientUnits="userSpaceOnUse">
<stop stop-color="#FF5B57"/>
<stop offset="1" stop-color="#AAE4D7"/>
</linearGradient>
<linearGradient id="paint3_linear_79_4622" x1="-35.9722" y1="-39153.6" x2="7209.19" y2="-39153.6" gradientUnits="userSpaceOnUse">
<stop stop-color="#FF5B57"/>
<stop offset="1" stop-color="#AAE4D7"/>
</linearGradient>
<linearGradient id="paint4_linear_79_4622" x1="-35.9722" y1="-39175.6" x2="7209.19" y2="-39175.6" gradientUnits="userSpaceOnUse">
<stop stop-color="#FF5B57"/>
<stop offset="1" stop-color="#AAE4D7"/>
</linearGradient>
<linearGradient id="paint5_linear_79_4622" x1="-35.9722" y1="-39197.6" x2="7209.19" y2="-39197.6" gradientUnits="userSpaceOnUse">
<stop stop-color="#FF5B57"/>
<stop offset="1" stop-color="#AAE4D7"/>
</linearGradient>
<linearGradient id="paint6_linear_79_4622" x1="-35.9722" y1="-39219.6" x2="7209.19" y2="-39219.6" gradientUnits="userSpaceOnUse">
<stop stop-color="#FF5B57"/>
<stop offset="1" stop-color="#AAE4D7"/>
</linearGradient>
<linearGradient id="paint7_linear_79_4622" x1="-35.9722" y1="-39241.6" x2="7209.19" y2="-39241.6" gradientUnits="userSpaceOnUse">
<stop stop-color="#FF5B57"/>
<stop offset="1" stop-color="#AAE4D7"/>
</linearGradient>
<linearGradient id="paint8_linear_79_4622" x1="-35.9722" y1="-39263.6" x2="7209.19" y2="-39263.6" gradientUnits="userSpaceOnUse">
<stop stop-color="#FF5B57"/>
<stop offset="1" stop-color="#AAE4D7"/>
</linearGradient>
<linearGradient id="paint9_linear_79_4622" x1="-35.9722" y1="-39285.6" x2="7209.19" y2="-39285.6" gradientUnits="userSpaceOnUse">
<stop stop-color="#FF5B57"/>
<stop offset="1" stop-color="#AAE4D7"/>
</linearGradient>
<linearGradient id="paint10_linear_79_4622" x1="-35.9722" y1="-39307.6" x2="7209.19" y2="-39307.6" gradientUnits="userSpaceOnUse">
<stop stop-color="#FF5B57"/>
<stop offset="1" stop-color="#AAE4D7"/>
</linearGradient>
<linearGradient id="paint11_linear_79_4622" x1="-35.9722" y1="-39329.6" x2="7209.19" y2="-39329.6" gradientUnits="userSpaceOnUse">
<stop stop-color="#FF5B57"/>
<stop offset="1" stop-color="#AAE4D7"/>
</linearGradient>
<linearGradient id="paint12_linear_79_4622" x1="-35.9722" y1="-39351.6" x2="7209.19" y2="-39351.6" gradientUnits="userSpaceOnUse">
<stop stop-color="#FF5B57"/>
<stop offset="1" stop-color="#AAE4D7"/>
</linearGradient>
<linearGradient id="paint13_linear_79_4622" x1="-35.9722" y1="-39373.6" x2="7209.19" y2="-39373.6" gradientUnits="userSpaceOnUse">
<stop stop-color="#FF5B57"/>
<stop offset="1" stop-color="#AAE4D7"/>
</linearGradient>
<linearGradient id="paint14_linear_79_4622" x1="-35.9722" y1="-39395.6" x2="7209.19" y2="-39395.6" gradientUnits="userSpaceOnUse">
<stop stop-color="#FF5B57"/>
<stop offset="1" stop-color="#AAE4D7"/>
</linearGradient>
<linearGradient id="paint15_linear_79_4622" x1="-35.9722" y1="-39417.6" x2="7209.19" y2="-39417.6" gradientUnits="userSpaceOnUse">
<stop stop-color="#FF5B57"/>
<stop offset="1" stop-color="#AAE4D7"/>
</linearGradient>
<linearGradient id="paint16_linear_79_4622" x1="-35.9722" y1="-39439.6" x2="7209.19" y2="-39439.6" gradientUnits="userSpaceOnUse">
<stop stop-color="#FF5B57"/>
<stop offset="1" stop-color="#AAE4D7"/>
</linearGradient>
<linearGradient id="paint17_linear_79_4622" x1="-35.9722" y1="-39461.6" x2="7209.19" y2="-39461.6" gradientUnits="userSpaceOnUse">
<stop stop-color="#FF5B57"/>
<stop offset="1" stop-color="#AAE4D7"/>
</linearGradient>
<linearGradient id="paint18_linear_79_4622" x1="-35.9722" y1="-39483.6" x2="7209.19" y2="-39483.6" gradientUnits="userSpaceOnUse">
<stop stop-color="#FF5B57"/>
<stop offset="1" stop-color="#AAE4D7"/>
</linearGradient>
</defs>
</svg>
