<svg width="1440" height="700" viewBox="0 0 1440 700" fill="none" xmlns="http://www.w3.org/2000/svg">
<g opacity="0.4" clip-path="url(#clip0_2206_733)">
<path d="M1440 0H0V700H1440V0Z" fill="#F4CBC6"/>
<path d="M1440 536.317C1371.68 507.617 1303.2 478.8 1235.36 459.317C1167.36 439.95 1099.84 429.8 1032.8 408.683C965.76 387.567 899.36 355.367 848.48 313.367C797.44 271.367 761.92 219.567 740.48 165.783C719.04 111.883 711.68 55.8833 704.48 0H1440V536.317Z" fill="#F4AFAB"/>
<path d="M0 163.683C81.92 163.916 163.84 164.15 227.36 189.933C290.72 215.716 335.84 266.933 397.76 300.766C459.68 334.6 538.4 350.816 588.96 388.033C639.52 425.133 661.92 483 681.76 538.533C701.44 593.95 718.56 647.033 735.52 700H0V163.683Z" fill="#F4AFAB"/>
</g>
<defs>
<clipPath id="clip0_2206_733">
<rect width="1440" height="700" fill="white"/>
</clipPath>
</defs>
</svg>
