<svg width="100" height="100" viewBox="0 0 100 100" fill="none" xmlns="http://www.w3.org/2000/svg">
  <path d="M26.4587 37.1255L27.8723 38.5403L27.8735 38.5391L26.4587 37.1255ZM73.5414 37.1255L72.1266 38.5391L72.1278 38.5403L73.5414 37.1255ZM73.5414 73.5415L72.1278 72.1267L72.1266 72.1279L73.5414 73.5415ZM26.4587 73.5415L27.8735 72.1279L27.8723 72.1267L26.4587 73.5415ZM54 57.3335C55.1046 57.3335 56 56.4381 56 55.3335C56 54.2289 55.1046 53.3335 54 53.3335V57.3335ZM46 53.3335C44.8955 53.3335 44 54.2289 44 55.3335C44 56.4381 44.8955 57.3335 46 57.3335V53.3335ZM52 51.3335C52 50.2289 51.1046 49.3335 50 49.3335C48.8955 49.3335 48 50.2289 48 51.3335H52ZM48 59.3335C48 60.4381 48.8955 61.3335 50 61.3335C51.1046 61.3335 52 60.4381 52 59.3335H48ZM25.3334 55.3335C25.3334 50.2489 25.3376 46.6365 25.7062 43.8961C26.067 41.2132 26.7437 39.668 27.8723 38.5403L25.0451 35.7107C23.0484 37.7057 22.1624 40.2364 21.7419 43.3629C21.3291 46.4319 21.3334 50.3621 21.3334 55.3335H25.3334ZM27.8735 38.5391C29.0012 37.4105 30.5464 36.7338 33.2293 36.373C35.9697 36.0044 39.5821 36.0002 44.6667 36.0002V32.0002C39.6953 32.0002 35.7651 31.9959 32.6961 32.4087C29.5696 32.8292 27.0389 33.7152 25.0439 35.7119L27.8735 38.5391ZM44.6667 36.0002H55.3334V32.0002H44.6667V36.0002ZM55.3334 36.0002C60.4179 36.0002 64.0304 36.0044 66.7708 36.373C69.4536 36.7338 70.9989 37.4105 72.1266 38.5391L74.9562 35.7119C72.9612 33.7152 70.4304 32.8292 67.304 32.4087C64.235 31.9959 60.3048 32.0002 55.3334 32.0002V36.0002ZM72.1278 38.5403C73.2564 39.668 73.9331 41.2132 74.2939 43.8961C74.6625 46.6365 74.6667 50.2489 74.6667 55.3335H78.6667C78.6667 50.3621 78.671 46.4319 78.2582 43.3629C77.8377 40.2364 76.9517 37.7057 74.955 35.7107L72.1278 38.5403ZM74.6667 55.3335C74.6667 60.4181 74.6625 64.0305 74.2939 66.7709C73.9331 69.4538 73.2564 70.999 72.1278 72.1267L74.955 74.9563C76.9517 72.9613 77.8377 70.4306 78.2582 67.3041C78.671 64.2351 78.6667 60.3049 78.6667 55.3335H74.6667ZM72.1266 72.1279C70.9989 73.2565 69.4536 73.9332 66.7708 74.294C64.0304 74.6626 60.4179 74.6668 55.3334 74.6668V78.6668C60.3048 78.6668 64.235 78.6711 67.304 78.2583C70.4304 77.8378 72.9612 76.9518 74.9562 74.9551L72.1266 72.1279ZM55.3334 74.6668H44.6667V78.6668H55.3334V74.6668ZM44.6667 74.6668C39.5821 74.6668 35.9697 74.6626 33.2293 74.294C30.5464 73.9332 29.0012 73.2565 27.8735 72.1279L25.0439 74.9551C27.0389 76.9518 29.5696 77.8378 32.6961 78.2583C35.7651 78.6711 39.6953 78.6668 44.6667 78.6668V74.6668ZM27.8723 72.1267C26.7437 70.999 26.067 69.4538 25.7062 66.7709C25.3376 64.0305 25.3334 60.4181 25.3334 55.3335H21.3334C21.3334 60.3049 21.3291 64.2351 21.7419 67.3041C22.1624 70.4306 23.0484 72.9613 25.0451 74.9563L27.8723 72.1267ZM62.6667 34.0002C62.6667 31.5421 62.671 29.4979 62.4535 27.8815C62.2283 26.2073 61.7328 24.6965 60.5183 23.4819L57.6898 26.3104C58.0379 26.6585 58.3238 27.1851 58.4892 28.4148C58.6625 29.7025 58.6667 31.4289 58.6667 34.0002H62.6667ZM60.5183 23.4819C59.3037 22.2674 57.7929 21.7719 56.1187 21.5467C54.5023 21.3292 52.4581 21.3335 50 21.3335V25.3335C52.5713 25.3335 54.2977 25.3377 55.5854 25.511C56.8151 25.6764 57.3417 25.9623 57.6898 26.3104L60.5183 23.4819ZM50 21.3335C47.542 21.3335 45.4977 21.3292 43.8814 21.5467C42.2071 21.7719 40.6964 22.2674 39.4818 23.4819L42.3103 26.3104C42.6583 25.9623 43.1849 25.6764 44.4147 25.511C45.7023 25.3377 47.4288 25.3335 50 25.3335V21.3335ZM39.4818 23.4819C38.2672 24.6965 37.7718 26.2073 37.5466 27.8815C37.3291 29.4979 37.3334 31.5421 37.3334 34.0002H41.3334C41.3334 31.4289 41.3376 29.7025 41.5109 28.4148C41.6763 27.1851 41.9622 26.6585 42.3103 26.3104L39.4818 23.4819ZM54 53.3335H46V57.3335H54V53.3335ZM48 51.3335V59.3335H52V51.3335H48ZM58.6667 55.3335C58.6667 60.12 54.7865 64.0002 50 64.0002V68.0002C56.9956 68.0002 62.6667 62.3291 62.6667 55.3335H58.6667ZM50 64.0002C45.2136 64.0002 41.3334 60.12 41.3334 55.3335H37.3334C37.3334 62.3291 43.0044 68.0002 50 68.0002V64.0002ZM41.3334 55.3335C41.3334 50.547 45.2136 46.6668 50 46.6668V42.6668C43.0044 42.6668 37.3334 48.3379 37.3334 55.3335H41.3334ZM50 46.6668C54.7865 46.6668 58.6667 50.547 58.6667 55.3335H62.6667C62.6667 48.3379 56.9956 42.6668 50 42.6668V46.6668Z" fill="#431F99" />
</svg>