<svg width="64" height="64" viewBox="0 0 64 64" fill="none" xmlns="http://www.w3.org/2000/svg">
<g id="solar:medical-kit-linear">
<g id="Group">
<path id="Vector" d="M42.6666 16.0002C42.6666 10.9708 42.6666 8.45883 41.1039 6.89616C39.5412 5.3335 37.0293 5.3335 31.9999 5.3335C26.9706 5.3335 24.4586 5.3335 22.8959 6.89616C21.3333 8.45883 21.3333 10.9708 21.3333 16.0002M5.33325 37.3335C5.33325 27.2775 5.33325 22.2482 8.45858 19.1255C11.5813 16.0002 16.6106 16.0002 26.6666 16.0002H37.3333C47.3892 16.0002 52.4186 16.0002 55.5412 19.1255C58.6666 22.2482 58.6666 27.2775 58.6666 37.3335C58.6666 47.3895 58.6666 52.4188 55.5412 55.5415C52.4186 58.6668 47.3892 58.6668 37.3333 58.6668H26.6666C16.6106 58.6668 11.5813 58.6668 8.45858 55.5415C5.33325 52.4188 5.33325 47.3895 5.33325 37.3335Z" stroke="#431F99" stroke-width="4"/>
<path id="Vector_2" d="M36 37.3335H28M32 33.3335V41.3335" stroke="#431F99" stroke-width="4" stroke-linecap="round"/>
<path id="Vector_3" d="M31.9999 48.0003C37.891 48.0003 42.6666 43.2247 42.6666 37.3337C42.6666 31.4426 37.891 26.667 31.9999 26.667C26.1089 26.667 21.3333 31.4426 21.3333 37.3337C21.3333 43.2247 26.1089 48.0003 31.9999 48.0003Z" stroke="#431F99" stroke-width="4"/>
</g>
</g>
</svg>
