<svg width="105" height="104" viewBox="0 0 105 104" fill="none" xmlns="http://www.w3.org/2000/svg">
<circle cx="52.5" cy="52" r="51" fill="#FDF4F4" stroke="white" stroke-width="2"/>
<g clip-path="url(#clip0_79_4803)">
<path fill-rule="evenodd" clip-rule="evenodd" d="M58.1644 39.4787C56.4619 38.6875 54.5256 38.25 52.3919 38.25C50.3119 38.25 48.4181 38.6662 46.7469 39.4212C45.9044 38.8187 44.3144 38.25 41.3156 38.25C40.1044 38.25 38.8781 38.9475 37.8119 40.2462C35.8606 42.625 34.3169 47.155 33.8756 51.0212C33.6094 53.3637 33.7644 55.4675 34.3594 56.78C34.9381 58.0588 35.8894 58.7487 37.1619 58.7487C37.6719 58.7487 38.1256 58.6225 38.5294 58.405C38.5744 58.8 38.6469 59.1875 38.7569 59.5688C38.0756 59.875 37.4481 60.305 36.9094 60.8438C35.7406 62.0138 35.0831 63.5988 35.0831 65.2525C35.0831 65.2975 35.0831 65.3287 35.0831 65.3287L36.3331 66.58H46.4569L46.5106 66.5713C46.7506 66.5275 47.7069 66.2888 47.7069 65.2525C47.7069 65.1613 47.7056 65.07 47.7019 64.98H56.8619C56.8581 65.07 56.8556 65.1613 56.8556 65.2525C56.8556 65.2975 56.8556 65.3287 56.8556 65.3287L58.1056 66.58H68.2294L68.2831 66.5713C68.5219 66.5275 69.4794 66.2888 69.4794 65.2525C69.4794 63.5988 68.8219 62.0138 67.6531 60.8438C67.1669 60.3575 66.6069 59.9587 66.0006 59.66C66.1369 59.215 66.2219 58.7588 66.2681 58.2913C66.7169 58.5788 67.2344 58.7487 67.8269 58.7487C69.0994 58.7487 70.0506 58.0588 70.6294 56.78C71.2244 55.4675 71.3794 53.3637 71.1131 51.0212C70.6719 47.155 69.1281 42.625 67.1769 40.2462C66.1106 38.9475 64.8844 38.25 63.6731 38.25C60.5794 38.25 58.9856 38.855 58.1644 39.4787ZM45.0181 64.08H37.7719C37.9531 63.5313 38.2619 63.0275 38.6769 62.6112C39.3781 61.9112 40.3269 61.5175 41.3181 61.5175H41.4731C42.4631 61.5175 43.4131 61.9112 44.1131 62.6112C44.5294 63.0275 44.8369 63.5313 45.0181 64.08ZM66.7906 64.08H59.5444C59.7256 63.5313 60.0331 63.0275 60.4494 62.6112C61.1494 61.9112 62.0994 61.5175 63.0894 61.5175H63.2444C64.2356 61.5175 65.1856 61.9112 65.8856 62.6112C66.3019 63.0275 66.6094 63.5313 66.7906 64.08ZM63.5806 59.0275C63.7969 58.39 63.8281 57.7175 63.8106 57.02C63.7806 55.8487 63.6031 54.6175 63.6031 53.345C63.6031 46.4275 59.3094 40.75 52.3919 40.75C45.4744 40.75 41.1819 46.4275 41.1819 53.345C41.1819 54.6175 41.0044 55.8487 40.9744 57.02C40.9556 57.715 40.9869 58.385 41.2019 59.0188C41.2406 59.0188 41.2794 59.0175 41.3181 59.0175H41.4731C43.1269 59.0175 44.7119 59.675 45.8819 60.8438C46.3631 61.3263 46.7594 61.88 47.0569 62.48H57.5056C57.8044 61.88 58.1994 61.3263 58.6819 60.8438C59.8506 59.675 61.4369 59.0175 63.0894 59.0175H63.2444C63.3569 59.0175 63.4694 59.0213 63.5806 59.0275ZM44.1519 40.9937C43.4856 40.8462 42.5706 40.75 41.3156 40.75C40.9894 40.75 40.6856 40.93 40.3806 41.18C39.9194 41.56 39.4894 42.1125 39.0844 42.7687C37.7106 44.9975 36.6944 48.3725 36.3594 51.305C36.1844 52.8488 36.1894 54.2638 36.4744 55.2925C36.5569 55.5887 36.6581 55.845 36.8031 56.0412C36.8931 56.1637 37.0069 56.2487 37.1619 56.2487C37.4706 56.2487 37.6344 55.9712 37.7994 55.7312C38.1806 55.1812 38.4344 54.5387 38.6494 54.1812C38.6531 54.1762 38.6556 54.1712 38.6594 54.1662C38.6731 53.8937 38.6819 53.6212 38.6819 53.345C38.6819 48.2275 40.6819 43.7212 44.1519 40.9937ZM66.1144 53.9063C66.1994 53.985 66.2756 54.0763 66.3394 54.1812C66.5544 54.5387 66.8081 55.1812 67.1894 55.7312C67.3544 55.9712 67.5181 56.2487 67.8269 56.2487C67.9819 56.2487 68.0956 56.1637 68.1856 56.0412C68.3306 55.845 68.4319 55.5887 68.5144 55.2925C68.7994 54.2638 68.8044 52.8488 68.6294 51.305C68.2944 48.3725 67.2781 44.9975 65.9044 42.7687C65.4994 42.1125 65.0694 41.56 64.6081 41.18C64.3031 40.93 63.9994 40.75 63.6731 40.75C62.3169 40.75 61.3581 40.8625 60.6794 41.0312C64.1206 43.7613 66.1031 48.25 66.1031 53.345C66.1031 53.5325 66.1069 53.72 66.1144 53.9063Z" fill="#F36681"/>
<path fill-rule="evenodd" clip-rule="evenodd" d="M50.4681 55.7048C50.8781 56.3748 51.6069 56.7836 52.3919 56.7836C53.1781 56.7836 53.9069 56.3748 54.3169 55.7048C54.9156 54.7236 55.7169 53.4136 56.3319 52.4061C56.7569 51.7111 56.7731 50.8386 56.3744 50.1273C55.9756 49.4161 55.2231 48.9761 54.4081 48.9761H50.3769C49.5606 48.9761 48.8094 49.4161 48.4106 50.1273C48.0106 50.8386 48.0269 51.7111 48.4531 52.4061L50.4681 55.7048ZM52.3919 54.0586L53.9706 51.4761H50.8131L52.3919 54.0586Z" fill="#F36681"/>
<path fill-rule="evenodd" clip-rule="evenodd" d="M51.1419 55.4351C51.1419 56.7526 50.0731 57.8213 48.7556 57.8213C47.4381 57.8213 46.3694 56.7526 46.3694 55.4351C46.3694 54.7451 45.8094 54.1851 45.1194 54.1851C44.4294 54.1851 43.8694 54.7451 43.8694 55.4351C43.8694 58.1313 46.0594 60.3213 48.7556 60.3213C51.4531 60.3213 53.6419 58.1313 53.6419 55.4351C53.6419 54.7451 53.0819 54.1851 52.3919 54.1851C51.7019 54.1851 51.1419 54.7451 51.1419 55.4351Z" fill="#F36681"/>
<path fill-rule="evenodd" clip-rule="evenodd" d="M58.4156 55.4351C58.4156 56.7526 57.3456 57.8213 56.0293 57.8213C54.7118 57.8213 53.6418 56.7526 53.6418 55.4351C53.6418 54.7451 53.0818 54.1851 52.3918 54.1851C51.7018 54.1851 51.1418 54.7451 51.1418 55.4351C51.1418 58.1313 53.3318 60.3213 56.0293 60.3213C58.7256 60.3213 60.9156 58.1313 60.9156 55.4351C60.9156 54.7451 60.3556 54.1851 59.6656 54.1851C58.9756 54.1851 58.4156 54.7451 58.4156 55.4351Z" fill="#F36681"/>
<path fill-rule="evenodd" clip-rule="evenodd" d="M49.5069 58.8887C49.5069 59.6537 49.8106 60.3874 50.3519 60.9287C50.8931 61.4699 51.6269 61.7737 52.3919 61.7737C53.1569 61.7737 53.8919 61.4699 54.4331 60.9287C54.9744 60.3874 55.2781 59.6537 55.2781 58.8887C55.2781 58.1987 54.7181 57.6387 54.0281 57.6387C53.3381 57.6387 52.7781 58.1987 52.7781 58.8887C52.7781 58.9912 52.7369 59.0887 52.6656 59.1612C52.5931 59.2324 52.4956 59.2737 52.3931 59.2737C52.2906 59.2737 52.1919 59.2324 52.1194 59.1612C52.0469 59.0887 52.0069 58.9912 52.0069 58.8887C52.0069 58.1987 51.4469 57.6387 50.7569 57.6387C50.0669 57.6387 49.5069 58.1987 49.5069 58.8887Z" fill="#F36681"/>
</g>
<defs>
<clipPath id="clip0_79_4803">
<rect width="40" height="40" fill="white" transform="translate(32.5 32)"/>
</clipPath>
</defs>
</svg>
