<svg width="64" height="64" viewBox="0 0 64 64" fill="none" xmlns="http://www.w3.org/2000/svg">
<g id="mdi:heart-outline">
<path id="Vector" d="M32.2666 49.4667L31.9999 49.7333L31.7066 49.4667C19.0399 37.9733 10.6666 30.3733 10.6666 22.6667C10.6666 17.3333 14.6666 13.3333 19.9999 13.3333C23.24 13.3333 26.4136 14.9933 28.3029 17.475C29.2087 18.6648 30.5046 19.6267 31.9999 19.6267C33.4953 19.6267 34.7912 18.6648 35.697 17.475C37.5862 14.9933 40.7599 13.3333 43.9999 13.3333C49.3333 13.3333 53.3333 17.3333 53.3333 22.6667C53.3333 30.3733 44.9599 37.9733 32.2666 49.4667ZM43.9999 8C39.3599 8 34.9066 10.16 31.9999 13.5467C29.0933 10.16 24.6399 8 19.9999 8C11.7866 8 5.33325 14.4267 5.33325 22.6667C5.33325 32.72 14.3999 40.96 28.1333 53.4133L29.3072 54.482C30.8335 55.8715 33.1664 55.8715 34.6926 54.482L35.8666 53.4133C49.5999 40.96 58.6666 32.72 58.6666 22.6667C58.6666 14.4267 52.2133 8 43.9999 8Z" fill="#148ACC"/>
</g>
</svg>
