<svg width="100" height="100" viewBox="0 0 100 100" fill="none" xmlns="http://www.w3.org/2000/svg">
  <path fill-rule="evenodd" clip-rule="evenodd" d="M59.063 29.966C56.339 28.7 53.241 28 49.827 28C46.499 28 43.469 28.666 40.795 29.874C39.447 28.91 36.903 28 32.105 28C30.167 28 28.205 29.116 26.499 31.194C23.377 35 20.907 42.248 20.201 48.434C19.775 52.182 20.023 55.548 20.975 57.648C21.901 59.694 23.423 60.798 25.459 60.798C26.275 60.798 27.001 60.596 27.647 60.248C27.719 60.88 27.835 61.5 28.011 62.11C26.921 62.6 25.917 63.288 25.055 64.15C23.185 66.022 22.133 68.558 22.133 71.204C22.133 71.276 22.133 71.326 22.133 71.326L24.133 73.328H40.331L40.417 73.314C40.801 73.244 42.331 72.862 42.331 71.204C42.331 71.058 42.329 70.912 42.323 70.768H56.979C56.973 70.912 56.969 71.058 56.969 71.204C56.969 71.276 56.969 71.326 56.969 71.326L58.969 73.328H75.167L75.253 73.314C75.635 73.244 77.167 72.862 77.167 71.204C77.167 68.558 76.115 66.022 74.245 64.15C73.467 63.372 72.571 62.734 71.601 62.256C71.819 61.544 71.955 60.814 72.029 60.066C72.747 60.526 73.575 60.798 74.523 60.798C76.559 60.798 78.081 59.694 79.007 57.648C79.959 55.548 80.207 52.182 79.781 48.434C79.075 42.248 76.605 35 73.483 31.194C71.777 29.116 69.815 28 67.877 28C62.927 28 60.377 28.968 59.063 29.966ZM38.029 69.328H26.435C26.725 68.45 27.219 67.644 27.883 66.978C29.005 65.858 30.523 65.228 32.109 65.228H32.357C33.941 65.228 35.461 65.858 36.581 66.978C37.247 67.644 37.739 68.45 38.029 69.328ZM72.865 69.328H61.271C61.561 68.45 62.053 67.644 62.719 66.978C63.839 65.858 65.359 65.228 66.943 65.228H67.191C68.777 65.228 70.297 65.858 71.417 66.978C72.083 67.644 72.575 68.45 72.865 69.328ZM67.729 61.244C68.075 60.224 68.125 59.148 68.097 58.032C68.049 56.158 67.765 54.188 67.765 52.152C67.765 41.084 60.895 32 49.827 32C38.759 32 31.891 41.084 31.891 52.152C31.891 54.188 31.607 56.158 31.559 58.032C31.529 59.144 31.579 60.216 31.923 61.23C31.985 61.23 32.047 61.228 32.109 61.228H32.357C35.003 61.228 37.539 62.28 39.411 64.15C40.181 64.922 40.815 65.808 41.291 66.768H58.009C58.487 65.808 59.119 64.922 59.891 64.15C61.761 62.28 64.299 61.228 66.943 61.228H67.191C67.371 61.228 67.551 61.234 67.729 61.244ZM36.643 32.39C35.577 32.154 34.113 32 32.105 32C31.583 32 31.097 32.288 30.609 32.688C29.871 33.296 29.183 34.18 28.535 35.23C26.337 38.796 24.711 44.196 24.175 48.888C23.895 51.358 23.903 53.622 24.359 55.268C24.491 55.742 24.653 56.152 24.885 56.466C25.029 56.662 25.211 56.798 25.459 56.798C25.953 56.798 26.215 56.354 26.479 55.97C27.089 55.09 27.495 54.062 27.839 53.49C27.845 53.482 27.849 53.474 27.855 53.466C27.877 53.03 27.891 52.594 27.891 52.152C27.891 43.964 31.091 36.754 36.643 32.39ZM71.783 53.05C71.919 53.176 72.041 53.322 72.143 53.49C72.487 54.062 72.893 55.09 73.503 55.97C73.767 56.354 74.029 56.798 74.523 56.798C74.771 56.798 74.953 56.662 75.097 56.466C75.329 56.152 75.491 55.742 75.623 55.268C76.079 53.622 76.087 51.358 75.807 48.888C75.271 44.196 73.645 38.796 71.447 35.23C70.799 34.18 70.111 33.296 69.373 32.688C68.885 32.288 68.399 32 67.877 32C65.707 32 64.173 32.18 63.087 32.45C68.593 36.818 71.765 44 71.765 52.152C71.765 52.452 71.771 52.752 71.783 53.05Z" fill="#148ACC" />
  <path fill-rule="evenodd" clip-rule="evenodd" d="M46.749 55.928C47.405 57 48.571 57.654 49.827 57.654C51.085 57.654 52.251 57 52.907 55.928C53.865 54.358 55.147 52.262 56.131 50.65C56.811 49.538 56.837 48.142 56.199 47.004C55.561 45.866 54.357 45.162 53.053 45.162H46.603C45.297 45.162 44.095 45.866 43.457 47.004C42.817 48.142 42.843 49.538 43.525 50.65L46.749 55.928ZM49.827 53.294L52.353 49.162H47.301L49.827 53.294Z" fill="#148ACC" />
  <path fill-rule="evenodd" clip-rule="evenodd" d="M47.827 55.496C47.827 57.604 46.117 59.314 44.009 59.314C41.901 59.314 40.191 57.604 40.191 55.496C40.191 54.392 39.295 53.496 38.191 53.496C37.087 53.496 36.191 54.392 36.191 55.496C36.191 59.81 39.695 63.314 44.009 63.314C48.325 63.314 51.827 59.81 51.827 55.496C51.827 54.392 50.931 53.496 49.827 53.496C48.723 53.496 47.827 54.392 47.827 55.496Z" fill="#148ACC" />
  <path fill-rule="evenodd" clip-rule="evenodd" d="M59.465 55.496C59.465 57.604 57.753 59.314 55.647 59.314C53.539 59.314 51.827 57.604 51.827 55.496C51.827 54.392 50.931 53.496 49.827 53.496C48.723 53.496 47.827 54.392 47.827 55.496C47.827 59.81 51.331 63.314 55.647 63.314C59.961 63.314 63.465 59.81 63.465 55.496C63.465 54.392 62.569 53.496 61.465 53.496C60.361 53.496 59.465 54.392 59.465 55.496Z" fill="#148ACC" />
  <path fill-rule="evenodd" clip-rule="evenodd" d="M45.211 61.022C45.211 62.246 45.697 63.42 46.563 64.286C47.429 65.152 48.603 65.638 49.827 65.638C51.051 65.638 52.227 65.152 53.093 64.286C53.959 63.42 54.445 62.246 54.445 61.022C54.445 59.918 53.549 59.022 52.445 59.022C51.341 59.022 50.445 59.918 50.445 61.022C50.445 61.186 50.379 61.342 50.265 61.458C50.149 61.572 49.993 61.638 49.829 61.638C49.665 61.638 49.507 61.572 49.391 61.458C49.275 61.342 49.211 61.186 49.211 61.022C49.211 59.918 48.315 59.022 47.211 59.022C46.107 59.022 45.211 59.918 45.211 61.022Z" fill="#148ACC" />
</svg>