<svg width="105" height="104" viewBox="0 0 105 104" fill="none" xmlns="http://www.w3.org/2000/svg">
<circle cx="52.5" cy="52" r="51" fill="#FDF4F4" stroke="white" stroke-width="2"/>
<path d="M59.1667 42.0002C59.1667 38.8568 59.1667 37.2868 58.19 36.3102C57.2134 35.3335 55.6434 35.3335 52.5 35.3335C49.3567 35.3335 47.7867 35.3335 46.81 36.3102C45.8334 37.2868 45.8334 38.8568 45.8334 42.0002M35.8334 55.3335C35.8334 49.0485 35.8334 45.9052 37.7867 43.9535C39.7384 42.0002 42.8817 42.0002 49.1667 42.0002H55.8334C62.1184 42.0002 65.2617 42.0002 67.2134 43.9535C69.1667 45.9052 69.1667 49.0485 69.1667 55.3335C69.1667 61.6185 69.1667 64.7618 67.2134 66.7135C65.2617 68.6668 62.1184 68.6668 55.8334 68.6668H49.1667C42.8817 68.6668 39.7384 68.6668 37.7867 66.7135C35.8334 64.7618 35.8334 61.6185 35.8334 55.3335Z" stroke="#F36681" stroke-width="3"/>
<path d="M55 55.3335H50M52.5 52.8335V57.8335" stroke="#F36681" stroke-width="3" stroke-linecap="round"/>
<path d="M52.5 62.0003C56.1819 62.0003 59.1667 59.0156 59.1667 55.3337C59.1667 51.6518 56.1819 48.667 52.5 48.667C48.8181 48.667 45.8334 51.6518 45.8334 55.3337C45.8334 59.0156 48.8181 62.0003 52.5 62.0003Z" stroke="#F36681" stroke-width="3"/>
</svg>
