<svg width="64" height="64" viewBox="0 0 64 64" fill="none" xmlns="http://www.w3.org/2000/svg">
<g id="tabler:dog-bowl">
<g id="Group">
<path id="Vector" d="M26.6665 39.9999L41.5625 25.1066C40.9423 24.4865 40.4845 23.7231 40.2297 22.8838C39.975 22.0446 39.9312 21.1555 40.1021 20.2953C40.2731 19.4351 40.6535 18.6303 41.2098 17.9522C41.766 17.2741 42.4809 16.7437 43.2911 16.4079C44.1013 16.0721 44.9818 15.9413 45.8547 16.027C46.7275 16.1128 47.5657 16.4125 48.2951 16.8995C49.0244 17.3866 49.6224 18.046 50.0361 18.8194C50.4497 19.5928 50.6663 20.4562 50.6665 21.3333C51.5438 21.3326 52.4076 21.5484 53.1816 21.9615C53.9555 22.3746 54.6156 22.9722 55.1033 23.7014C55.5911 24.4305 55.8914 25.2688 55.9778 26.1418C56.0641 27.0148 55.9337 27.8956 55.5982 28.7062C55.2628 29.5168 54.7325 30.2321 54.0545 30.7887C53.3764 31.3454 52.5715 31.7262 51.7111 31.8974C50.8507 32.0686 49.9614 32.0249 49.1219 31.7702C48.2824 31.5155 47.5187 31.0577 46.8985 30.4373L37.3332 39.9999" stroke="#1F9960" stroke-width="4" stroke-linecap="round" stroke-linejoin="round"/>
<path id="Vector_2" d="M31.9999 34.6666L22.4372 25.1066C23.0575 24.4865 23.5153 23.7231 23.77 22.8838C24.0247 22.0446 24.0686 21.1555 23.8976 20.2953C23.7267 19.4351 23.3462 18.6303 22.79 17.9522C22.2337 17.2741 21.5188 16.7437 20.7086 16.4079C19.8984 16.0721 19.0179 15.9413 18.1451 16.027C17.2722 16.1128 16.434 16.4125 15.7046 16.8995C14.9753 17.3866 14.3773 18.046 13.9637 18.8194C13.55 19.5928 13.3335 20.4562 13.3332 21.3333C12.456 21.3326 11.5921 21.5484 10.8182 21.9615C10.0442 22.3746 9.38414 22.9722 8.8964 23.7014C8.40865 24.4305 8.10831 25.2688 8.02198 26.1418C7.93565 27.0148 8.06601 27.8956 8.4015 28.7062C8.73698 29.5168 9.26724 30.2321 9.94528 30.7887C10.6233 31.3454 11.4282 31.7262 12.2886 31.8974C13.149 32.0686 14.0383 32.0249 14.8778 31.7702C15.7173 31.5155 16.481 31.0577 17.1012 30.4373L26.6666 39.9999M7.9999 53.3333H55.9999C55.5332 48.8773 55.8772 44.4133 50.6666 39.9999H13.3332C9.77857 42.6666 7.9999 47.1119 7.9999 53.3333Z" stroke="#1F9960" stroke-width="4" stroke-linecap="round" stroke-linejoin="round"/>
</g>
</g>
</svg>
