<svg width="144" height="36" viewBox="0 0 144 36" fill="none" xmlns="http://www.w3.org/2000/svg">
  <path d="M7.584 26.168C6.352 26.168 5.248 25.968 4.272 25.568C3.296 25.168 2.512 24.576 1.92 23.792C1.344 23.008 1.04 22.064 1.008 20.96H5.376C5.44 21.584 5.656 22.064 6.024 22.4C6.392 22.72 6.872 22.88 7.464 22.88C8.072 22.88 8.552 22.744 8.904 22.472C9.256 22.184 9.432 21.792 9.432 21.296C9.432 20.88 9.288 20.536 9 20.264C8.728 19.992 8.384 19.768 7.968 19.592C7.568 19.416 6.992 19.216 6.24 18.992C5.152 18.656 4.264 18.32 3.576 17.984C2.888 17.648 2.296 17.152 1.8 16.496C1.304 15.84 1.056 14.984 1.056 13.928C1.056 12.36 1.624 11.136 2.76 10.256C3.896 9.36 5.376 8.912 7.2 8.912C9.056 8.912 10.552 9.36 11.688 10.256C12.824 11.136 13.432 12.368 13.512 13.952H9.072C9.04 13.408 8.84 12.984 8.472 12.68C8.104 12.36 7.632 12.2 7.056 12.2C6.56 12.2 6.16 12.336 5.856 12.608C5.552 12.864 5.4 13.24 5.4 13.736C5.4 14.28 5.656 14.704 6.168 15.008C6.68 15.312 7.48 15.64 8.568 15.992C9.656 16.36 10.536 16.712 11.208 17.048C11.896 17.384 12.488 17.872 12.984 18.512C13.48 19.152 13.728 19.976 13.728 20.984C13.728 21.944 13.48 22.816 12.984 23.6C12.504 24.384 11.8 25.008 10.872 25.472C9.944 25.936 8.848 26.168 7.584 26.168ZM22.7816 26.168C21.1976 26.168 19.7416 25.8 18.4136 25.064C17.1016 24.328 16.0536 23.304 15.2696 21.992C14.5016 20.664 14.1176 19.176 14.1176 17.528C14.1176 15.88 14.5016 14.4 15.2696 13.088C16.0536 11.776 17.1016 10.752 18.4136 10.016C19.7416 9.28 21.1976 8.912 22.7816 8.912C24.3656 8.912 25.8136 9.28 27.1256 10.016C28.4536 10.752 29.4936 11.776 30.2456 13.088C31.0136 14.4 31.3976 15.88 31.3976 17.528C31.3976 19.176 31.0136 20.664 30.2456 21.992C29.4776 23.304 28.4376 24.328 27.1256 25.064C25.8136 25.8 24.3656 26.168 22.7816 26.168ZM22.7816 22.424C24.1256 22.424 25.1976 21.976 25.9976 21.08C26.8136 20.184 27.2216 19 27.2216 17.528C27.2216 16.04 26.8136 14.856 25.9976 13.976C25.1976 13.08 24.1256 12.632 22.7816 12.632C21.4216 12.632 20.3336 13.072 19.5176 13.952C18.7176 14.832 18.3176 16.024 18.3176 17.528C18.3176 19.016 18.7176 20.208 19.5176 21.104C20.3336 21.984 21.4216 22.424 22.7816 22.424ZM38.3368 26.168C37.1048 26.168 36.0008 25.968 35.0248 25.568C34.0488 25.168 33.2648 24.576 32.6728 23.792C32.0968 23.008 31.7928 22.064 31.7608 20.96H36.1288C36.1928 21.584 36.4088 22.064 36.7768 22.4C37.1448 22.72 37.6248 22.88 38.2168 22.88C38.8248 22.88 39.3048 22.744 39.6568 22.472C40.0088 22.184 40.1848 21.792 40.1848 21.296C40.1848 20.88 40.0408 20.536 39.7528 20.264C39.4808 19.992 39.1368 19.768 38.7208 19.592C38.3208 19.416 37.7448 19.216 36.9928 18.992C35.9048 18.656 35.0168 18.32 34.3288 17.984C33.6408 17.648 33.0488 17.152 32.5528 16.496C32.0568 15.84 31.8088 14.984 31.8088 13.928C31.8088 12.36 32.3768 11.136 33.5128 10.256C34.6488 9.36 36.1288 8.912 37.9528 8.912C39.8088 8.912 41.3048 9.36 42.4408 10.256C43.5768 11.136 44.1848 12.368 44.2648 13.952H39.8248C39.7928 13.408 39.5928 12.984 39.2248 12.68C38.8568 12.36 38.3848 12.2 37.8088 12.2C37.3128 12.2 36.9128 12.336 36.6088 12.608C36.3048 12.864 36.1528 13.24 36.1528 13.736C36.1528 14.28 36.4088 14.704 36.9208 15.008C37.4328 15.312 38.2328 15.64 39.3208 15.992C40.4088 16.36 41.2888 16.712 41.9608 17.048C42.6488 17.384 43.2408 17.872 43.7368 18.512C44.2328 19.152 44.4808 19.976 44.4808 20.984C44.4808 21.944 44.2328 22.816 43.7368 23.6C43.2568 24.384 42.5528 25.008 41.6248 25.472C40.6968 25.936 39.6008 26.168 38.3368 26.168ZM53.0689 15.272C53.5009 14.52 54.1409 13.896 54.9889 13.4C55.8529 12.888 56.8529 12.632 57.9889 12.632C59.1569 12.632 60.2129 12.912 61.1569 13.472C62.1169 14.032 62.8689 14.824 63.4129 15.848C63.9569 16.856 64.2289 18.032 64.2289 19.376C64.2289 20.704 63.9569 21.888 63.4129 22.928C62.8689 23.968 62.1169 24.776 61.1569 25.352C60.2129 25.928 59.1569 26.216 57.9889 26.216C56.8689 26.216 55.8769 25.968 55.0129 25.472C54.1649 24.96 53.5169 24.328 53.0689 23.576V32.24H50.8849V12.848H53.0689V15.272ZM61.9969 19.376C61.9969 18.384 61.7969 17.52 61.3969 16.784C60.9969 16.048 60.4529 15.488 59.7649 15.104C59.0929 14.72 58.3489 14.528 57.5329 14.528C56.7329 14.528 55.9889 14.728 55.3009 15.128C54.6289 15.512 54.0849 16.08 53.6689 16.832C53.2689 17.568 53.0689 18.424 53.0689 19.4C53.0689 20.392 53.2689 21.264 53.6689 22.016C54.0849 22.752 54.6289 23.32 55.3009 23.72C55.9889 24.104 56.7329 24.296 57.5329 24.296C58.3489 24.296 59.0929 24.104 59.7649 23.72C60.4529 23.32 60.9969 22.752 61.3969 22.016C61.7969 21.264 61.9969 20.384 61.9969 19.376ZM77.6636 18.92C77.6636 19.336 77.6396 19.776 77.5916 20.24H67.0796C67.1596 21.536 67.5996 22.552 68.3996 23.288C69.2156 24.008 70.1996 24.368 71.3516 24.368C72.2956 24.368 73.0796 24.152 73.7036 23.72C74.3436 23.272 74.7916 22.68 75.0476 21.944H77.3996C77.0476 23.208 76.3436 24.24 75.2876 25.04C74.2316 25.824 72.9196 26.216 71.3516 26.216C70.1036 26.216 68.9836 25.936 67.9916 25.376C67.0156 24.816 66.2476 24.024 65.6876 23C65.1276 21.96 64.8476 20.76 64.8476 19.4C64.8476 18.04 65.1196 16.848 65.6636 15.824C66.2076 14.8 66.9676 14.016 67.9436 13.472C68.9356 12.912 70.0716 12.632 71.3516 12.632C72.5996 12.632 73.7036 12.904 74.6636 13.448C75.6236 13.992 76.3596 14.744 76.8716 15.704C77.3996 16.648 77.6636 17.72 77.6636 18.92ZM75.4076 18.464C75.4076 17.632 75.2236 16.92 74.8556 16.328C74.4876 15.72 73.9836 15.264 73.3436 14.96C72.7196 14.64 72.0236 14.48 71.2556 14.48C70.1516 14.48 69.2076 14.832 68.4236 15.536C67.6556 16.24 67.2156 17.216 67.1036 18.464H75.4076ZM81.7704 14.648V22.4C81.7704 23.04 81.9064 23.496 82.1784 23.768C82.4504 24.024 82.9224 24.152 83.5944 24.152H85.2024V26H83.2344C82.0184 26 81.1064 25.72 80.4984 25.16C79.8904 24.6 79.5864 23.68 79.5864 22.4V14.648H77.8824V12.848H79.5864V9.536H81.7704V12.848H85.2024V14.648H81.7704Z" fill="#F36681" />
  <path d="M112.473 17.7188L110.933 9.46884C110.896 9.26774 110.817 9.07647 110.703 8.90677C110.589 8.73708 110.441 8.59255 110.269 8.48209C110.097 8.37162 109.904 8.29755 109.702 8.26442C109.5 8.2313 109.293 8.23982 109.095 8.28947L109.066 8.2979L104.142 9.75009H99.8578L94.9341 8.30259L94.905 8.29415C94.7065 8.24451 94.5 8.23598 94.2981 8.26911C94.0962 8.30224 93.9033 8.37631 93.7311 8.48678C93.5589 8.59724 93.4111 8.74177 93.2968 8.91146C93.1825 9.08115 93.1042 9.27243 93.0666 9.47353L91.5272 17.7188C91.4614 18.0491 91.5102 18.3919 91.6657 18.6905C91.8212 18.9892 92.0739 19.2259 92.3822 19.3613C92.5796 19.4519 92.7941 19.4992 93.0113 19.5001C93.2712 19.5 93.5263 19.43 93.75 19.2976V23.2501C93.75 24.2447 94.1451 25.1985 94.8484 25.9017C95.5516 26.605 96.5054 27.0001 97.5 27.0001H106.5C107.495 27.0001 108.448 26.605 109.152 25.9017C109.855 25.1985 110.25 24.2447 110.25 23.2501V19.2985C110.473 19.4307 110.728 19.5006 110.988 19.501C111.205 19.5004 111.42 19.4534 111.618 19.3632C111.926 19.2277 112.179 18.9907 112.335 18.6916C112.49 18.3926 112.539 18.0493 112.473 17.7188ZM93 18.0001L94.5403 9.75009L98.4844 10.9098L93 18.0001ZM106.5 25.5001H102.75V24.3104L104.031 23.0307C104.171 22.89 104.25 22.6991 104.25 22.5001C104.25 22.3011 104.171 22.1102 104.031 21.9695C103.89 21.8287 103.699 21.7497 103.5 21.7497C103.301 21.7497 103.11 21.8287 102.969 21.9695L102 22.9398L101.031 21.9695C100.89 21.8287 100.699 21.7497 100.5 21.7497C100.301 21.7497 100.11 21.8287 99.9694 21.9695C99.8286 22.1102 99.7496 22.3011 99.7496 22.5001C99.7496 22.6991 99.8286 22.89 99.9694 23.0307L101.25 24.3104V25.5001H97.5C96.9033 25.5001 96.331 25.263 95.909 24.8411C95.4871 24.4191 95.25 23.8468 95.25 23.2501V17.5417L100.118 11.2501H103.882L108.75 17.5417V23.2501C108.75 23.8468 108.513 24.4191 108.091 24.8411C107.669 25.263 107.097 25.5001 106.5 25.5001ZM111 18.0001L105.516 10.9098L109.46 9.75009L111 18.0001ZM99.75 19.1251C99.75 19.3476 99.684 19.5651 99.5604 19.7501C99.4368 19.9351 99.2611 20.0793 99.0555 20.1645C98.85 20.2496 98.6238 20.2719 98.4055 20.2285C98.1873 20.1851 97.9868 20.0779 97.8295 19.9206C97.6722 19.7633 97.565 19.5628 97.5216 19.3446C97.4782 19.1263 97.5005 18.9001 97.5856 18.6946C97.6708 18.489 97.815 18.3133 98 18.1897C98.185 18.0661 98.4025 18.0001 98.625 18.0001C98.9234 18.0001 99.2095 18.1186 99.4205 18.3296C99.6315 18.5406 99.75 18.8267 99.75 19.1251ZM106.5 19.1251C106.5 19.3476 106.434 19.5651 106.31 19.7501C106.187 19.9351 106.011 20.0793 105.806 20.1645C105.6 20.2496 105.374 20.2719 105.156 20.2285C104.937 20.1851 104.737 20.0779 104.58 19.9206C104.422 19.7633 104.315 19.5628 104.272 19.3446C104.228 19.1263 104.25 18.9001 104.336 18.6946C104.421 18.489 104.565 18.3133 104.75 18.1897C104.935 18.0661 105.152 18.0001 105.375 18.0001C105.673 18.0001 105.96 18.1186 106.17 18.3296C106.381 18.5406 106.5 18.8267 106.5 19.1251Z" fill="#F36681" />
  <path d="M123 19.1248C123 19.3473 122.934 19.5648 122.81 19.7498C122.687 19.9348 122.511 20.079 122.306 20.1642C122.1 20.2493 121.874 20.2716 121.656 20.2282C121.437 20.1848 121.237 20.0776 121.08 19.9203C120.922 19.763 120.815 19.5625 120.772 19.3443C120.728 19.126 120.75 18.8998 120.836 18.6943C120.921 18.4887 121.065 18.313 121.25 18.1894C121.435 18.0658 121.652 17.9998 121.875 17.9998C122.173 17.9998 122.46 18.1183 122.67 18.3293C122.881 18.5403 123 18.8264 123 19.1248ZM130.125 17.9998C129.902 17.9998 129.685 18.0658 129.5 18.1894C129.315 18.313 129.171 18.4887 129.086 18.6943C129 18.8998 128.978 19.126 129.022 19.3443C129.065 19.5625 129.172 19.763 129.33 19.9203C129.487 20.0776 129.687 20.1848 129.906 20.2282C130.124 20.2716 130.35 20.2493 130.556 20.1642C130.761 20.079 130.937 19.9348 131.06 19.7498C131.184 19.5648 131.25 19.3473 131.25 19.1248C131.25 18.8264 131.131 18.5403 130.92 18.3293C130.71 18.1183 130.423 17.9998 130.125 17.9998ZM135.75 10.4998V18.7498C135.75 23.712 131.377 27.7498 126 27.7498C120.623 27.7498 116.25 23.712 116.25 18.7498V10.4998C116.25 10.2032 116.338 9.91335 116.503 9.6668C116.668 9.42026 116.902 9.2281 117.176 9.11463C117.45 9.00116 117.752 8.97145 118.042 9.02927C118.333 9.08709 118.601 9.22984 118.81 9.43948C118.823 9.45261 118.835 9.46479 118.846 9.47792L120.469 11.3435C122.128 10.3039 124.047 9.75257 126.005 9.75257C127.963 9.75257 129.881 10.3039 131.541 11.3435L133.154 9.47792C133.165 9.46479 133.177 9.45261 133.19 9.43948C133.399 9.22984 133.667 9.08709 133.958 9.02927C134.248 8.97145 134.55 9.00116 134.824 9.11463C135.098 9.2281 135.332 9.42026 135.497 9.6668C135.662 9.91335 135.75 10.2032 135.75 10.4998ZM134.25 10.4998L132.229 12.8248C132.105 12.9678 131.932 13.0589 131.744 13.0798C131.556 13.1006 131.367 13.0497 131.215 12.9373C130.758 12.5989 130.267 12.3084 129.75 12.0701V14.2498C129.75 14.4487 129.671 14.6395 129.53 14.7801C129.39 14.9208 129.199 14.9998 129 14.9998C128.801 14.9998 128.61 14.9208 128.47 14.7801C128.329 14.6395 128.25 14.4487 128.25 14.2498V11.5357C127.758 11.4092 127.256 11.3239 126.75 11.2807V14.2498C126.75 14.4487 126.671 14.6395 126.53 14.7801C126.39 14.9208 126.199 14.9998 126 14.9998C125.801 14.9998 125.61 14.9208 125.47 14.7801C125.329 14.6395 125.25 14.4487 125.25 14.2498V11.2807C124.744 11.3239 124.242 11.4092 123.75 11.5357V14.2498C123.75 14.4487 123.671 14.6395 123.53 14.7801C123.39 14.9208 123.199 14.9998 123 14.9998C122.801 14.9998 122.61 14.9208 122.47 14.7801C122.329 14.6395 122.25 14.4487 122.25 14.2498V12.0701C121.733 12.3084 121.242 12.5989 120.785 12.9373C120.633 13.0501 120.444 13.1014 120.256 13.0811C120.069 13.0607 119.895 12.9702 119.771 12.8276L117.75 10.4998V18.7498C117.75 22.6554 121.051 25.8748 125.25 26.2189V24.3101L123.969 23.0295C123.9 22.9598 123.845 22.8771 123.807 22.7861C123.769 22.695 123.75 22.5975 123.75 22.499C123.75 22.4005 123.769 22.303 123.807 22.212C123.845 22.121 123.9 22.0383 123.97 21.9687C124.111 21.8281 124.301 21.7492 124.5 21.7492C124.599 21.7493 124.696 21.7687 124.787 21.8065C124.878 21.8442 124.961 21.8995 125.031 21.9692L126 22.9385L126.969 21.9692C127.039 21.8995 127.122 21.8442 127.213 21.8065C127.304 21.7687 127.401 21.7493 127.5 21.7492C127.598 21.7492 127.696 21.7686 127.787 21.8062C127.878 21.8439 127.96 21.8991 128.03 21.9687C128.1 22.0383 128.155 22.121 128.193 22.212C128.231 22.303 128.25 22.4005 128.25 22.499C128.25 22.5975 128.231 22.695 128.193 22.7861C128.155 22.8771 128.1 22.9598 128.031 23.0295L126.75 24.3101V26.2189C130.949 25.8729 134.25 22.6564 134.25 18.7498V10.4998Z" fill="#F36681" />
</svg>