<svg width="1440" height="425" viewBox="0 0 1440 425" fill="none" xmlns="http://www.w3.org/2000/svg">
<g clip-path="url(#clip0_139_715)">
<path d="M-240 324L-194.133 322.74C-148.267 321.66 -56.5333 319.14 34.7733 315.54C126.293 311.94 217.173 307.26 308.693 314.64C400 322.2 491.733 342 583.04 363.6C674.56 385.2 765.44 408.6 856.96 410.04C948.267 411.66 1040 391.14 1131.31 382.86C1222.83 374.4 1313.71 378 1405.23 369.54C1496.53 361.26 1588.27 340.74 1634.13 330.66L1680 320.4V730.8H1634.13C1588.27 730.8 1496.53 730.8 1405.23 730.8C1313.71 730.8 1222.83 730.8 1131.31 730.8C1040 730.8 948.267 730.8 856.96 730.8C765.44 730.8 674.56 730.8 583.04 730.8C491.733 730.8 400 730.8 308.693 730.8C217.173 730.8 126.293 730.8 34.7733 730.8C-56.5333 730.8 -148.267 730.8 -194.133 730.8H-240V324Z" fill="#FDC7BC"/>
<path d="M-240 415.8L-194.133 413.46C-148.267 410.94 -56.5333 406.26 34.7733 396.9C126.293 387.54 217.173 373.86 308.693 377.1C400 380.34 491.733 400.86 583.04 422.46C674.56 444.06 765.44 466.74 856.96 476.46C948.267 486 1040 482.4 1131.31 481.5C1222.83 480.6 1313.71 482.4 1405.23 475.56C1496.53 468.54 1588.27 453.06 1634.13 445.14L1680 437.4V730.8H1634.13C1588.27 730.8 1496.53 730.8 1405.23 730.8C1313.71 730.8 1222.83 730.8 1131.31 730.8C1040 730.8 948.267 730.8 856.96 730.8C765.44 730.8 674.56 730.8 583.04 730.8C491.733 730.8 400 730.8 308.693 730.8C217.173 730.8 126.293 730.8 34.7733 730.8C-56.5333 730.8 -148.267 730.8 -194.133 730.8H-240V415.8Z" fill="#FBBAAE"/>
</g>
<defs>
<clipPath id="clip0_139_715">
<rect width="1920" height="1080" fill="white" transform="translate(-240 -351)"/>
</clipPath>
</defs>
</svg>
